# xmcd
#
# Track frame offsets:
# 150
# 16667
# 32079
# 54017
# 75769
# 92830
# 112509
# 140934
# 163828
#
# Disc length: 2378 seconds
#
#
# Revision: 0
# Processed by: cddbd v1.5PL3 Copyright (c) Steve Scherf et al.
# Submitted via: FreeRIP 2.52 
#
DISCID=5b094809
DTITLE=PATRICIA PEREYRA - GALA
DYEAR=2000
DGENRE=Blues
TTITLE0=LA ESPERA
TTITLE1=COMO UNA FLOR
TTITLE2=SERA
TTITLE3=AZUL
TTITLE4=LAS TARDES
TTITLE5=BRUJAS
TTITLE6=BEBO DESPACIO
TTITLE7=TIZANA AZUL
TTITLE8=INSOMNIO
EXTD=
EXTT0=
EXTT1=
EXTT2=
EXTT3=
EXTT4=
EXTT5=
EXTT6=
EXTT7=
EXTT8=
PLAYORDER=
